<?xml version="1.0" encoding="UTF-8" standalone="no"?>
<svg
   width="900"
   height="900"
   viewBox="0 0 900 900"
   version="1.1"
   xml:space="preserve"
   id="teahouse-logo"
   xmlns="http://www.w3.org/2000/svg"
   xmlns:svg="http://www.w3.org/2000/svg">
<defs
   id="defs5" />

<style
   type="text/css"
   id="style1">
g.prefab path {
  vector-effect:non-scaling-stroke;
  -inkscape-stroke:hairline;
  fill: none;
  fill-opacity: 1;
  stroke-opacity: 1;
  stroke: #00349c;
}
</style>
<path
   id="teahouse-logo-path"
   style="fill-opacity:1"
   d="m 341.30273,159.38672 c -3.62517,-0.0874 -7.23969,-0.0578 -10.83789,0.0859 -62.36868,2.49131 -119.94193,39.32958 -147.06445,97.91015 -30.18928,65.20431 -15.27224,141.51179 35.01758,190.75586 l -88.66211,0.16602 A 326.31903,328.34888 0 0 0 318.75977,744.8691 207.34105,136.93251 0 0 0 248.73242,847.05855 l 207.3418,-0.0644 207.33789,0.7832 A 207.34105,136.93251 0 0 0 593.83203,744.66406 326.31903,328.34888 0 0 0 782.39258,447.69336 H 456.07422 l -207.1875,0.38867 a 10,10 0 0 0 -1.375,-1.29101 c -56.31697,-42.08626 -75.42251,-117.37555 -45.96289,-181.00391 29.45962,-63.62836 99.45278,-98.13685 168.21094,-82.87305 68.75816,15.26381 117.34979,76.06887 116.8457,146.11328 a 10,10 0 0 0 0.0605,0.15039 c 0.0195,38.52257 23.37129,73.22672 58.88281,86.64258 35.93821,13.57706 76.46591,2.2116 100.69531,-28.0625 24.2294,-30.27409 27.21324,-72.8573 7.5,-106.36719 -19.71324,-33.50988 -58.16764,-50.76343 -95.66016,-42.65234 a 10,10 0 0 0 -7.66015,11.88672 10,10 0 0 0 11.88867,7.66016 c 29.04092,-6.28268 58.69258,6.89682 74.19336,33.24609 15.50078,26.34927 13.1208,59.99125 -5.87695,83.72852 -18.99776,23.73726 -50.12616,32.38642 -78.01172,21.85156 -27.88557,-10.53486 -46.4215,-38.14134 -45.98633,-69.03516 a 10,10 0 0 0 -0.0957,-0.80664 C 506.21124,248.68162 451.26993,180.52319 374.0937,163.39062 c -10.94107,-2.42883 -21.91548,-3.74183 -32.79102,-4.0039 z" /></svg>
